<svg id="Line" xmlns="http://www.w3.org/2000/svg" viewBox="0 0 64 64"><title>1</title><path d="M58.88379,27.32227a9.82691,9.82691,0,0,0-8.63665,9.9395.32338.32338,0,0,1-.43461.31C42.277,34.71021,34.46212,42.30937,37.18767,49.922c.05763.2588-.03167.375-.29214.40565a9.81887,9.81887,0,0,0-9.43407,7.43068c-.023.0937-.104.16645-.18265.14692a25.99171,25.99171,0,0,1-13.61963-7.20068C2.78692,40.178,3.6852,21.27267,15.67366,11.91655A26.144,26.144,0,0,1,57.03223,24.21973a1,1,0,0,0,1.90427-.61039C48.79541-5.96984,6.17127-.37751,4.03564,30.80588c-.899,13.67071,9.36693,26.752,22.87324,29.06506a2.17266,2.17266,0,0,0,2.49444-1.63511,7.81218,7.81218,0,0,1,7.5-5.90815,2.30346,2.30346,0,0,0,2.17962-3.044,7.7988,7.7988,0,0,1,10.04594-9.832,2.33339,2.33339,0,0,0,3.11816-2.23682,7.78866,7.78866,0,0,1,6.86914-7.90625A1.00012,1.00012,0,0,0,58.88379,27.32227Z"/><path d="M56.6203,55.643a1.35724,1.35724,0,0,0,1.91912,1.919A1.35724,1.35724,0,0,0,56.6203,55.643Z"/><path d="M53.25238,47.57336a1.35724,1.35724,0,0,0,1.91912,1.919A1.35724,1.35724,0,0,0,53.25238,47.57336Z"/><path d="M57.43591,43.38983a1.35724,1.35724,0,0,0-1.91912-1.919A1.35724,1.35724,0,0,0,57.43591,43.38983Z"/><path d="M41.21027,54.72186a1.35724,1.35724,0,0,0,1.91912,1.919A1.35724,1.35724,0,0,0,41.21027,54.72186Z"/><path d="M39.176,16.22552a1.35722,1.35722,0,0,0-1.91907-1.919A1.35722,1.35722,0,0,0,39.176,16.22552Z"/><path d="M34.58948,30.82959a1.35724,1.35724,0,0,0,1.91912,1.919A1.35724,1.35724,0,0,0,34.58948,30.82959Z"/><path d="M17.33325,30.84485a1.35724,1.35724,0,0,0-1.91912-1.919A1.35724,1.35724,0,0,0,17.33325,30.84485Z"/><path d="M28.68341,36.05048a1.35724,1.35724,0,0,0,1.91912,1.919A1.35724,1.35724,0,0,0,28.68341,36.05048Z"/><path d="M22.13086,15.53363a1.35721,1.35721,0,0,0-1.91906-1.919A1.35721,1.35721,0,0,0,22.13086,15.53363Z"/><path d="M22.00439,48.78455a1.35724,1.35724,0,0,0,1.91913,1.919A1.35724,1.35724,0,0,0,22.00439,48.78455Z"/><path d="M52.713,23.08533a1.35724,1.35724,0,0,0,1.91913,1.919A1.35724,1.35724,0,0,0,52.713,23.08533Z"/><path d="M23.14355,36.76465c-5.78421-5.42924-13.91371,2.70182-8.48526,8.485C20.43113,50.68539,28.57523,42.55088,23.14355,36.76465Zm-1.41406,7.0708c-3.82735,3.63142-9.28893-1.83007-5.65714-5.65682C19.89992,34.54739,25.3611,40.00914,21.72949,43.83545Z"/><path d="M30.48926,19.35791c-5.7728-5.43564-13.91709,2.69826-8.48526,8.485C27.7882,33.27222,35.91758,25.14062,30.48926,19.35791Zm-1.41406,7.0708c-3.82736,3.63142-9.28894-1.83006-5.65714-5.65682C27.24562,17.14065,32.70681,22.6024,29.0752,26.42871Z"/><path d="M43.11914,31.45313c7.93144-.239,7.92856-11.7626-.00013-12C35.1909,19.69155,35.19205,31.21563,43.11914,31.45313ZM40.29,22.62451c3.8227-3.63868,9.29646,1.83711,5.65714,5.65731C42.09859,31.83188,36.65716,26.48039,40.29,22.62451Z"/><path d="M48.81934,55.84454a1.35724,1.35724,0,0,0,1.91912,1.919A1.35724,1.35724,0,0,0,48.81934,55.84454Z"/></svg>