<svg xmlns="http://www.w3.org/2000/svg" viewBox="0 0 48 48"><title>Ui vol.1</title><g id="Layer_18" data-name="Layer 18"><path d="M39.64648,7.57715H8.35352A6.41751,6.41751,0,0,0,1.94385,13.9873V33.13574A6.41751,6.41751,0,0,0,8.35352,39.5459h31.293a6.37892,6.37892,0,0,0,4.35773-1.72278c.00665-.00623.01563-.00806.02216-.01453.00433-.00427.00555-.01019.00982-.01452a6.38688,6.38688,0,0,0,2.02045-4.65833V13.9873A6.41792,6.41792,0,0,0,39.64648,7.57715Zm4.41016,6.41015V33.13574a4.38092,4.38092,0,0,1-.7757,2.48993L31.43726,23.59888,43.733,12.34766A4.37549,4.37549,0,0,1,44.05664,13.9873ZM39.64648,9.57715a4.37462,4.37462,0,0,1,2.91864,1.12952l-15.54754,14.226a4.33156,4.33156,0,0,1-5.92237-.0791l-2.092-2.02106-.0003-.00043-.00043-.00024L6.00085,10.27094a4.371,4.371,0,0,1,2.35267-.69379ZM3.94385,13.9873a4.36613,4.36613,0,0,1,.65826-2.28759L16.916,23.5968,5.15442,36.15283a4.38449,4.38449,0,0,1-1.21057-3.01709ZM8.35352,37.5459a4.35967,4.35967,0,0,1-1.50061-.28052l11.5017-12.27862,1.351,1.30523a6.33479,6.33479,0,0,0,8.66162.11621l1.5932-1.45788L41.79193,36.96478a4.35583,4.35583,0,0,1-2.14545.58112Z"/></g></svg>