<svg id="Glyph" xmlns="http://www.w3.org/2000/svg" viewBox="0 0 64 64"><defs><style>.cls-1{fill:#231f20;}</style></defs><title>1</title><path class="cls-1" d="M56.88,46.13,49.4,38.66a5.00355,5.00355,0,0,0-7.07,0L38.72,42.27a2.02139,2.02139,0,0,1-2.3.38A34.41958,34.41958,0,0,1,21.28,27.34a2.00294,2.00294,0,0,1,.36-2.35l3.51-3.51a5.00961,5.00961,0,0,0,0-7.07L17.87,7.12a5.02159,5.02159,0,0,0-7.08,0L6.37,11.55a7.0223,7.0223,0,0,0-1.96,6.08C5.88,26.59,13.27,56.11,46.67,59.75a6.44377,6.44377,0,0,0,.76.04,6.94451,6.94451,0,0,0,4.92-2.06l4.53-4.52A5.01555,5.01555,0,0,0,56.88,46.13Z"/></svg>